<svg data-v-423bf9ae="" xmlns="http://www.w3.org/2000/svg" viewBox="0 0 1053 90" class="iconLeft"><g data-v-423bf9ae="" id="a3664aa9-858f-47fe-b247-169695516020" fill="black" transform="matrix(4.354135990142822,0,0,4.354135990142822,174.29725646972656,2.3294665813446045)"><path d="M0.49 13.30L4.19 13.30L4.19 12.89C3.60 12.84 3.28 12.84 3.18 12.67C3.14 12.61 3.14 12.60 3.14 12.00L3.14 8.74L4.10 8.74C4.94 8.74 5.59 9.00 5.82 9.95C5.92 10.35 6.08 11.45 6.23 12.10C6.44 12.99 6.97 13.30 7.80 13.30L8.93 13.30L8.93 12.89C7.84 12.78 7.62 12.00 7.49 11.05C7.32 9.80 7.07 8.86 5.59 8.50L5.59 8.47C6.90 8.22 7.87 7.34 7.87 6.01C7.87 4.66 7.03 3.61 4.58 3.61L0.49 3.61L0.49 4.02C1.72 4.10 1.75 4.13 1.75 4.91L1.75 12.00C1.75 12.78 1.72 12.81 0.49 12.89ZM3.14 8.25L3.14 4.80C3.14 4.21 3.23 4.10 4.16 4.10C5.19 4.10 6.37 4.48 6.37 6.13C6.37 7.60 5.60 8.25 4.24 8.25ZM8.67 6.85C9.34 6.87 9.48 6.96 9.73 7.57C10.43 9.25 11.59 12.24 11.93 13.20C12.01 13.44 12.04 13.65 12.04 13.89C12.04 14.21 11.91 14.63 11.70 15.08C11.49 15.54 11.24 15.67 11.09 15.67C10.95 15.67 10.82 15.62 10.57 15.37C10.43 15.25 10.32 15.18 10.15 15.18C9.88 15.18 9.53 15.55 9.53 15.96C9.53 16.30 9.93 16.69 10.51 16.69C11.07 16.69 11.79 16.52 12.50 14.45C13.37 11.96 14.66 8.54 15.09 7.56C15.34 7.00 15.43 6.89 16.13 6.85L16.13 6.44L13.44 6.44L13.44 6.85L14.17 6.92C14.41 6.94 14.43 7.11 14.36 7.39C14.15 8.23 13.43 10.35 12.81 12.03L12.78 12.03C12.14 10.33 11.58 8.81 11.06 7.34C10.98 7.08 10.95 6.93 11.27 6.90L11.87 6.85L11.87 6.44L8.67 6.44ZM16.51 11.48C16.51 12.53 17.21 13.47 18.52 13.47C19.33 13.47 20.16 12.92 20.61 12.63C20.80 13.15 21.03 13.47 21.52 13.47C22.04 13.47 22.64 13.31 23.17 13.05L23.09 12.71C22.89 12.75 22.58 12.78 22.37 12.73C22.12 12.67 21.88 12.40 21.88 11.52L21.88 8.13C21.88 7.32 21.70 6.27 19.59 6.27C18.00 6.27 16.76 7.10 16.76 7.87C16.76 8.32 17.28 8.53 17.54 8.53C17.84 8.53 17.92 8.37 17.99 8.13C18.30 7.10 18.87 6.76 19.43 6.76C19.98 6.76 20.62 7.04 20.62 8.16L20.62 8.75C20.27 9.11 18.91 9.46 17.81 9.81C16.80 10.12 16.51 10.82 16.51 11.48ZM17.92 11.28C17.92 10.63 18.23 10.29 19.01 10.00C19.57 9.79 20.31 9.52 20.62 9.32L20.62 11.30C20.62 12.43 19.75 12.73 19.21 12.73C18.34 12.73 17.92 12.11 17.92 11.28ZM23.59 13.30L27.01 13.30L27.01 12.89C26.01 12.82 25.96 12.80 25.96 12.08L25.96 8.81C25.96 8.46 25.98 8.26 26.10 8.04C26.39 7.49 27.02 7.03 27.76 7.03C28.71 7.03 29.23 7.56 29.23 8.78L29.23 12.08C29.23 12.80 29.19 12.82 28.18 12.89L28.18 13.30L31.60 13.30L31.60 12.89C30.60 12.82 30.55 12.80 30.55 12.08L30.55 8.50C30.55 7.08 29.78 6.27 28.49 6.27C27.45 6.27 26.81 6.78 25.94 7.34L25.75 6.27L23.66 6.62L23.66 6.97L24.19 7.04C24.56 7.10 24.64 7.17 24.64 7.67L24.64 12.08C24.64 12.80 24.60 12.82 23.59 12.89ZM32.12 5.94L32.54 5.94C32.70 4.41 33.00 4.10 34.64 4.10L35.46 4.10L35.46 12.00C35.46 12.78 35.42 12.81 33.92 12.89L33.92 13.30L38.39 13.30L38.39 12.89C36.89 12.81 36.85 12.78 36.85 12.00L36.85 4.10L37.67 4.10C39.31 4.10 39.61 4.41 39.77 5.94L40.19 5.94L40.19 3.61L32.12 3.61ZM39.79 11.48C39.79 12.53 40.49 13.47 41.80 13.47C42.62 13.47 43.44 12.92 43.89 12.63C44.09 13.15 44.31 13.47 44.80 13.47C45.32 13.47 45.92 13.31 46.45 13.05L46.37 12.71C46.17 12.75 45.86 12.78 45.65 12.73C45.40 12.67 45.16 12.40 45.16 11.52L45.16 8.13C45.16 7.32 44.98 6.27 42.87 6.27C41.29 6.27 40.04 7.10 40.04 7.87C40.04 8.32 40.56 8.53 40.82 8.53C41.12 8.53 41.20 8.37 41.27 8.13C41.58 7.10 42.15 6.76 42.71 6.76C43.26 6.76 43.90 7.04 43.90 8.16L43.90 8.75C43.55 9.11 42.20 9.46 41.09 9.81C40.08 10.12 39.79 10.82 39.79 11.48ZM41.20 11.28C41.20 10.63 41.51 10.29 42.29 10.00C42.85 9.79 43.60 9.52 43.90 9.32L43.90 11.30C43.90 12.43 43.04 12.73 42.49 12.73C41.62 12.73 41.20 12.11 41.20 11.28ZM46.70 13.30L50.12 13.30L50.12 12.89C49.13 12.82 49.07 12.80 49.07 12.08L49.07 9.74L49.10 9.74C49.67 10.65 50.67 11.87 51.39 12.61C51.91 13.13 52.46 13.30 52.91 13.33L53.96 13.37L53.96 12.98C53.54 12.87 53.19 12.66 52.75 12.22C51.88 11.37 50.79 10.04 50.26 9.28C50.19 9.18 50.16 9.11 50.30 8.96C50.97 8.19 51.42 7.78 51.90 7.43C52.37 7.08 52.72 6.92 53.54 6.83L53.54 6.44L52.09 6.44C51.62 6.44 51.49 6.51 51.21 6.85C50.81 7.34 49.42 9.07 49.10 9.55L49.07 9.55L49.07 3.00L48.97 2.91L46.77 3.26L46.77 3.61L47.31 3.67C47.67 3.71 47.75 3.78 47.75 4.31L47.75 12.08C47.75 12.80 47.71 12.82 46.70 12.89ZM54.45 9.93C54.45 12.14 55.40 13.47 57.68 13.47C59.23 13.47 60.03 12.60 60.41 11.49L59.99 11.27C59.60 12.08 59.07 12.75 57.96 12.75C56.22 12.75 55.87 11.07 55.90 9.62L59.93 9.62C60.23 9.62 60.49 9.55 60.49 9.09C60.49 8.26 60.23 6.27 57.67 6.27C55.48 6.27 54.45 7.83 54.45 9.93ZM55.92 9.09C55.92 8.51 56.13 6.76 57.58 6.76C58.88 6.76 59.04 8.09 59.04 8.64C59.04 8.90 58.95 9.09 58.56 9.09ZM61.61 10.96L61.75 12.80C62.26 13.24 63.11 13.47 63.94 13.47C65.60 13.47 66.56 12.59 66.56 11.40C66.56 10.16 65.80 9.60 64.36 9.16C63.78 8.97 62.86 8.68 62.86 7.90C62.86 7.17 63.42 6.76 64.12 6.76C65.11 6.76 65.59 7.53 65.69 8.39L66.09 8.39L66.09 6.75C65.63 6.41 64.92 6.27 64.29 6.27C62.78 6.27 61.74 6.99 61.74 8.32C61.74 9.48 62.69 10.00 63.85 10.35C64.48 10.54 65.37 10.86 65.37 11.82C65.37 12.53 64.81 12.98 64.06 12.98C62.93 12.98 62.30 12.15 62.02 10.96ZM67.55 13.30L71.68 13.30L71.68 12.89C70.24 12.81 70.20 12.78 70.20 12.00L70.20 9.32L70.99 9.32C71.64 9.32 72.27 9.27 72.79 9.14C73.86 8.86 75.10 8.11 75.10 6.36C75.10 5.29 74.63 4.56 74.00 4.17C73.33 3.75 72.44 3.61 71.46 3.61L67.55 3.61L67.55 4.02C68.78 4.10 68.81 4.13 68.81 4.91L68.81 12.00C68.81 12.78 68.78 12.81 67.55 12.89ZM70.20 8.29L70.20 4.62C70.20 4.23 70.35 4.10 71.26 4.10C72.70 4.10 73.58 4.93 73.58 6.45C73.58 8.20 72.44 8.83 71.23 8.83C70.41 8.83 70.20 8.81 70.20 8.29ZM76.75 4.14C76.75 4.65 77.10 5.00 77.60 5.00C78.11 5.00 78.46 4.65 78.46 4.14C78.46 3.64 78.11 3.29 77.60 3.29C77.10 3.29 76.75 3.64 76.75 4.14ZM75.91 13.30L79.32 13.30L79.32 12.89C78.33 12.82 78.27 12.80 78.27 12.08L78.27 6.36L78.18 6.27L75.98 6.62L75.98 6.97L76.51 7.04C76.87 7.10 76.96 7.17 76.96 7.67L76.96 12.08C76.96 12.80 76.92 12.82 75.91 12.89ZM80.22 9.94C80.22 12.28 81.37 13.47 83.47 13.47C84.45 13.47 85.76 12.95 86.16 11.45L85.75 11.26C85.32 12.24 84.76 12.74 83.73 12.74C82.07 12.74 81.68 11.00 81.68 9.69C81.68 7.60 82.50 6.76 83.47 6.76C84.11 6.76 84.52 7.22 84.80 7.98C84.88 8.20 84.97 8.34 85.23 8.34C85.51 8.34 86.06 8.16 86.06 7.63C86.06 6.99 85.13 6.27 83.62 6.27C81.07 6.27 80.22 8.08 80.22 9.94ZM86.91 7.00L87.92 7.00L87.92 11.87C87.92 13.30 88.98 13.47 89.47 13.47C90.19 13.47 90.86 13.10 91.27 12.85L91.15 12.56C90.82 12.70 90.51 12.74 90.16 12.74C89.68 12.74 89.24 12.40 89.24 11.34L89.24 7.00L91.04 7.00L91.04 6.44L89.24 6.44L89.24 4.68L88.83 4.68L87.98 6.44L86.91 6.44ZM91.66 6.97L92.19 7.04C92.55 7.10 92.64 7.17 92.64 7.67L92.64 11.37C92.64 12.98 93.59 13.47 94.63 13.47C95.82 13.47 96.78 12.66 97.19 12.46L97.33 13.30L99.57 13.30L99.57 12.89C98.60 12.82 98.52 12.80 98.52 12.08L98.52 6.36L98.42 6.27L96.22 6.62L96.22 6.97L96.75 7.04C97.12 7.10 97.20 7.17 97.20 7.67L97.20 10.82C97.20 11.21 97.16 11.52 97.09 11.66C96.77 12.31 96.10 12.71 95.37 12.71C94.56 12.71 93.95 12.21 93.95 11.12L93.95 6.36L93.86 6.27L91.66 6.62ZM100.23 13.30L103.92 13.30L103.92 12.89C102.68 12.82 102.59 12.80 102.59 12.08L102.59 8.81C102.59 7.73 103.07 7.36 103.39 7.36C103.61 7.36 103.85 7.45 104.26 7.67C104.36 7.73 104.47 7.74 104.54 7.74C104.87 7.74 105.18 7.39 105.18 6.96C105.18 6.65 104.99 6.27 104.44 6.27C103.94 6.27 103.52 6.58 102.59 7.39L102.42 6.27L100.30 6.62L100.30 6.97L100.83 7.04C101.19 7.10 101.28 7.17 101.28 7.67L101.28 12.08C101.28 12.80 101.21 12.82 100.23 12.89ZM105.63 9.93C105.63 12.14 106.58 13.47 108.86 13.47C110.42 13.47 111.22 12.60 111.59 11.49L111.17 11.27C110.78 12.08 110.25 12.75 109.14 12.75C107.41 12.75 107.06 11.07 107.09 9.62L111.12 9.62C111.41 9.62 111.68 9.55 111.68 9.09C111.68 8.26 111.41 6.27 108.85 6.27C106.67 6.27 105.63 7.83 105.63 9.93ZM107.10 9.09C107.10 8.51 107.31 6.76 108.77 6.76C110.07 6.76 110.22 8.09 110.22 8.64C110.22 8.90 110.14 9.09 109.75 9.09ZM112.80 10.96L112.94 12.80C113.44 13.24 114.30 13.47 115.12 13.47C116.79 13.47 117.74 12.59 117.74 11.40C117.74 10.16 116.98 9.60 115.54 9.16C114.97 8.97 114.04 8.68 114.04 7.90C114.04 7.17 114.60 6.76 115.30 6.76C116.30 6.76 116.77 7.53 116.87 8.39L117.28 8.39L117.28 6.75C116.82 6.41 116.10 6.27 115.47 6.27C113.96 6.27 112.92 6.99 112.92 8.32C112.92 9.48 113.88 10.00 115.04 10.35C115.67 10.54 116.55 10.86 116.55 11.82C116.55 12.53 115.99 12.98 115.25 12.98C114.11 12.98 113.48 12.15 113.20 10.96ZM118.92 8.46C118.92 10.02 119.35 11.31 120.11 12.15C120.89 13.03 122.04 13.51 123.58 13.51C125.12 13.51 126.27 13.03 127.05 12.15C127.81 11.31 128.24 10.02 128.24 8.46C128.24 6.89 127.81 5.60 127.05 4.76C126.27 3.88 125.12 3.40 123.58 3.40C122.04 3.40 120.89 3.88 120.11 4.76C119.35 5.60 118.92 6.89 118.92 8.46ZM120.48 8.46C120.48 6.40 121.09 3.89 123.58 3.89C126.07 3.89 126.67 6.40 126.67 8.46C126.67 10.51 126.07 13.02 123.58 13.02C121.09 13.02 120.48 10.51 120.48 8.46ZM129.33 7.00L130.41 7.00L130.41 12.08C130.41 12.80 130.37 12.82 129.36 12.89L129.36 13.30L133.06 13.30L133.06 12.89C131.78 12.84 131.73 12.81 131.73 12.10L131.73 7.00L133.43 7.00L133.43 6.44L131.73 6.44L131.67 4.87C131.63 3.54 132.12 3.40 132.34 3.40C132.64 3.40 132.94 3.54 133.29 4.35C133.36 4.49 133.46 4.59 133.67 4.59C133.95 4.59 134.36 4.35 134.36 3.93C134.36 3.47 133.77 2.91 132.65 2.91C131.88 2.91 131.22 3.26 130.87 3.79C130.55 4.28 130.41 5.03 130.41 5.95L130.41 6.44L129.33 6.44ZM134.08 10.43L134.22 12.67C134.83 13.24 136.00 13.51 136.98 13.51C139.45 13.51 140.43 12.10 140.43 10.67C140.43 9.02 139.31 8.23 137.68 7.63L137.23 7.46C136.29 7.11 135.51 6.51 135.51 5.67C135.51 4.65 136.12 3.89 137.30 3.89C138.50 3.89 139.17 4.58 139.40 5.99L139.83 5.99L139.83 4.02C139.36 3.64 138.40 3.40 137.45 3.40C135.74 3.40 134.23 4.26 134.23 6.10C134.23 7.57 135.41 8.34 136.88 8.86L137.13 8.96C137.75 9.20 139.08 9.84 139.08 11.09C139.08 12.29 138.31 13.02 137.06 13.02C135.74 13.02 134.88 12.00 134.53 10.43ZM140.97 16.11L140.97 16.52L144.59 16.52L144.59 16.11C143.42 16.04 143.33 16.02 143.33 15.30L143.33 13.15C143.63 13.31 144.28 13.47 144.93 13.47C146.82 13.47 148.44 12.60 148.44 9.72C148.44 8.72 148.26 6.27 145.71 6.27C144.69 6.27 143.88 6.96 143.33 7.31L143.15 6.27L141.04 6.62L141.04 6.97L141.57 7.04C141.93 7.10 142.02 7.17 142.02 7.67L142.02 15.30C142.02 16.02 141.95 16.04 140.97 16.11ZM143.33 11.10L143.33 8.81C143.33 8.46 143.39 8.26 143.51 8.01C143.84 7.36 144.44 7.03 145.18 7.03C145.74 7.03 146.99 7.39 146.99 9.80C146.99 11.86 146.34 12.98 144.94 12.98C144.21 12.98 143.65 12.60 143.43 11.96C143.35 11.70 143.33 11.42 143.33 11.10ZM149.81 11.48C149.81 12.53 150.51 13.47 151.83 13.47C152.64 13.47 153.47 12.92 153.92 12.63C154.11 13.15 154.34 13.47 154.83 13.47C155.34 13.47 155.95 13.31 156.48 13.05L156.39 12.71C156.20 12.75 155.89 12.78 155.68 12.73C155.43 12.67 155.19 12.40 155.19 11.52L155.19 8.13C155.19 7.32 155.01 6.27 152.89 6.27C151.31 6.27 150.07 7.10 150.07 7.87C150.07 8.32 150.58 8.53 150.85 8.53C151.14 8.53 151.23 8.37 151.30 8.13C151.61 7.10 152.18 6.76 152.74 6.76C153.29 6.76 153.93 7.04 153.93 8.16L153.93 8.75C153.58 9.11 152.22 9.46 151.12 9.81C150.11 10.12 149.81 10.82 149.81 11.48ZM151.23 11.28C151.23 10.63 151.54 10.29 152.32 10.00C152.88 9.79 153.62 9.52 153.93 9.32L153.93 11.30C153.93 12.43 153.06 12.73 152.52 12.73C151.65 12.73 151.23 12.11 151.23 11.28ZM157.14 9.94C157.14 12.28 158.28 13.47 160.38 13.47C161.36 13.47 162.68 12.95 163.07 11.45L162.67 11.26C162.23 12.24 161.67 12.74 160.65 12.74C158.98 12.74 158.59 11.00 158.59 9.69C158.59 7.60 159.42 6.76 160.38 6.76C161.03 6.76 161.43 7.22 161.71 7.98C161.80 8.20 161.88 8.34 162.15 8.34C162.43 8.34 162.97 8.16 162.97 7.63C162.97 6.99 162.05 6.27 160.54 6.27C157.99 6.27 157.14 8.08 157.14 9.94ZM164.08 9.93C164.08 12.14 165.03 13.47 167.31 13.47C168.87 13.47 169.67 12.60 170.04 11.49L169.62 11.27C169.23 12.08 168.70 12.75 167.59 12.75C165.86 12.75 165.51 11.07 165.54 9.62L169.57 9.62C169.86 9.62 170.13 9.55 170.13 9.09C170.13 8.26 169.86 6.27 167.30 6.27C165.12 6.27 164.08 7.83 164.08 9.93ZM165.55 9.09C165.55 8.51 165.76 6.76 167.22 6.76C168.52 6.76 168.67 8.09 168.67 8.64C168.67 8.90 168.59 9.09 168.20 9.09ZM171.29 12.59C171.29 13.09 171.64 13.47 172.17 13.47C172.72 13.47 173.04 13.09 173.05 12.59C173.05 12.07 172.72 11.68 172.17 11.68C171.64 11.68 171.29 12.07 171.29 12.59ZM174.71 9.94C174.71 12.28 175.85 13.47 177.95 13.47C178.93 13.47 180.25 12.95 180.64 11.45L180.24 11.26C179.80 12.24 179.24 12.74 178.22 12.74C176.55 12.74 176.16 11.00 176.16 9.69C176.16 7.60 176.99 6.76 177.95 6.76C178.60 6.76 179.00 7.22 179.28 7.98C179.37 8.20 179.45 8.34 179.72 8.34C180.00 8.34 180.54 8.16 180.54 7.63C180.54 6.99 179.62 6.27 178.11 6.27C175.56 6.27 174.71 8.08 174.71 9.94ZM181.65 9.87C181.65 12.14 182.76 13.47 185.01 13.47C187.26 13.47 188.37 12.14 188.37 9.87C188.37 7.60 187.26 6.27 185.01 6.27C182.76 6.27 181.65 7.60 181.65 9.87ZM183.11 9.87C183.11 7.94 183.72 6.76 185.01 6.76C186.30 6.76 186.91 7.94 186.91 9.87C186.91 11.80 186.30 12.98 185.01 12.98C183.72 12.98 183.11 11.80 183.11 9.87ZM189.49 13.30L192.91 13.30L192.91 12.89C191.91 12.82 191.86 12.80 191.86 12.08L191.86 8.81C191.86 8.46 191.87 8.26 191.97 8.06C192.23 7.50 192.85 7.03 193.62 7.03C194.82 7.03 194.96 7.91 194.96 8.78L194.96 12.08C194.96 12.80 194.92 12.82 193.91 12.89L193.91 13.30L197.33 13.30L197.33 12.89C196.34 12.82 196.28 12.80 196.28 12.08L196.28 8.81C196.28 8.46 196.29 8.26 196.38 8.04C196.59 7.48 197.19 7.03 197.97 7.03C198.86 7.03 199.39 7.53 199.39 8.78L199.39 12.08C199.39 12.80 199.35 12.82 198.34 12.89L198.34 13.30L201.75 13.30L201.75 12.89C200.76 12.82 200.70 12.80 200.70 12.08L200.70 8.50C200.70 7.08 199.95 6.27 198.62 6.27C197.47 6.27 196.64 7.04 196.15 7.35C195.82 6.69 195.29 6.27 194.31 6.27C193.23 6.27 192.35 6.97 191.86 7.34L191.73 6.27L189.56 6.62L189.56 6.97L190.09 7.04C190.46 7.10 190.54 7.17 190.54 7.67L190.54 12.08C190.54 12.80 190.50 12.82 189.49 12.89Z"></path></g><g data-v-423bf9ae="" id="36b0712c-c7a4-44d6-bfef-c2b4d4eaaf04" transform="matrix(1.656402349472046,0,0,1.656402349472046,-4.065989017486572,-36.99575424194336)" stroke="none" fill="black"><defs><style>.cls-1{fill:#010101}</style></defs><g data-name="Shape 100"><path class="cls-1" d="M96.89 44.47a.78.78 0 10-1.19-.63.82.82 0 001.19.63zM78.41 65.85a.72.72 0 10-.35-1.19.76.76 0 00.35 1.19zM95.91 51.1a.63.63 0 10-1 .29.66.66 0 001-.29zM17.45 64.35a.54.54 0 01.15-1.06.55.55 0 11-.16 1.08zM20.61 33.08a.5.5 0 10-.28.83.53.53 0 00.28-.83zM93 58.9a.54.54 0 01-.23.92.55.55 0 01.24-1v.08zM8.28 36.93A.43.43 0 119 37a.52.52 0 01-.73-.07zM83.59 37.77a.45.45 0 11.59-.25.59.59 0 01-.59.26zM5.82 60.41a.39.39 0 01-.51 0v-.5c.28-.28.82.25.53.53zM88.65 61.48a.36.36 0 01-.54-.3.4.4 0 01.56-.31.6.6 0 010 .66zM78.83 36.24a.5.5 0 01-.42-.07.49.49 0 01.43-.6.67.67 0 010 .68z"></path><path class="cls-1" d="M87.66 42.26c3 1.75 6.09 4.54 5.73 8-.26 2.49-2.28 4.41-4.32 5.86a34.21 34.21 0 01-12.62 5.53c-2 .43-4.36.84-5.45 2.61a27.73 27.73 0 01-23 12.92 27.73 27.73 0 01-23.15-12.7c-1.24-2-3.86-2.41-6.14-2.92A32.47 32.47 0 018 57c-2.45-1.6-4.85-3.84-5.15-6.75-.4-4 3.18-7.14 6.66-9.05a41.19 41.19 0 0110.68-4c1.91-.43 4.07-.86 5.16-2.49a26.92 26.92 0 0143.25-1.87c1.24 1.54 2.36 3.26 4 4.33a1.27 1.27 0 011.67-1.1l.11 1.25a41.83 41.83 0 0113.25 4.95M71.75 59.82a25.55 25.55 0 00-23.62-35.41 25.55 25.55 0 00-23.5 35.48 3.58 3.58 0 00.83 1.33 3.81 3.81 0 002 .73 131.59 131.59 0 0040.78.48 4.78 4.78 0 002.42-.82 4.44 4.44 0 001.15-1.79M62.7 70.64a26.88 26.88 0 005.53-5.24q.8-1 1.51-2.08a137.48 137.48 0 01-43.11.24 25.45 25.45 0 0036.07 7.08m9.88-9.15a40.94 40.94 0 0014.66-5.1c2.72-1.58 5.54-4.05 5.28-7.18-.21-2.6-2.49-4.51-4.71-5.88a40.91 40.91 0 00-15.87-5.7 27.46 27.46 0 01.64 23.86M8.43 55.14a38.62 38.62 0 0014.41 5.74 28.75 28.75 0 01.1-22.31A42.37 42.37 0 008.84 44c-2.31 1.5-4.62 3.87-4.17 6.59C5 52.57 6.73 54 8.43 55.14zM89.42 38.69a.33.33 0 110-.5v.5z"></path><path class="cls-1" d="M36.12 59.69a.7.7 0 11-.07-1.16.76.76 0 01.05 1.14zM64.41 60.84a.91.91 0 011 .3.79.79 0 11-1-.31zM58 57.78a.53.53 0 01.32-.83.91.91 0 01.4.58.55.55 0 01-.77.32zM52.21 61.18l.42.42a1 1 0 01-.63.4.45.45 0 01.16-.83zM47.54 60.93a.66.66 0 01-.42.25.63.63 0 01-.25-.42.58.58 0 01.59-.25.56.56 0 01.08.42zM30.5 58.47a.63.63 0 01.25.42.58.58 0 01-.59.25.42.42 0 01.34-.65zM34.48 67.07a.33.33 0 01.34.3 1.18 1.18 0 01-.59.43.63.63 0 01-.23-.61l.5-.18v.05zM45.15 67.38a.46.46 0 01-.66.51v-.52a.66.66 0 01.68 0zM41.87 67.43c.29.16-.06.7-.32.5a.36.36 0 01-.11-.39.53.53 0 01.42-.08zM56.34 68.8a1.27 1.27 0 11-1.56-1 1.32 1.32 0 011.56 1zM78.79 57.5a.73.73 0 011-.32 1.34 1.34 0 01.62 1 .88.88 0 01-.12.74.7.7 0 01-.88.07 1.54 1.54 0 01-.55-.77 1 1 0 01-.07-.69zM73.78 39.52a.45.45 0 01.64.13.48.48 0 01-.18.63c-.37.21-.68-.43-.5-.82zM77.32 40.47l.57.28a.44.44 0 11-.57-.24zM82.91 54a.44.44 0 01.16-.81 1.07 1.07 0 01.43.58.59.59 0 01-.59.26zM85.62 46.93a.73.73 0 10.3-1.23.77.77 0 00-.3 1.23zM88.49 50.54a.62.62 0 01.38.78.54.54 0 01-.7-.17.38.38 0 01.32-.56v-.05zM77 57.12a.46.46 0 01.41.07.48.48 0 01-.42.61.69.69 0 010-.69zM81.73 42.41a.42.42 0 10.54.48.44.44 0 00-.54-.48zM17.22 44.33c-.2.19-.58-.1-.5-.36a.5.5 0 01.7-.22.42.42 0 01-.15.67zM14 53a.63.63 0 10-.85.69A.67.67 0 0014 53zM21.08 40.88l.43-.07a.61.61 0 01.08.43l-.42.24a.35.35 0 01-.09-.58zM9.63 48.82c.26.05.1.57-.15.46a.26.26 0 01.16-.46z"></path></g></g></svg>